<mxfile host="app.diagrams.net" modified="2020-11-24T20:35:10.413Z" agent="5.0 (X11; Linux x86_64) AppleWebKit/537.36 (KHTML, like Gecko) Chrome/83.0.4103.116 Safari/537.36" etag="qb3-thDpSLsnYBBxJssG" version="13.10.2" type="github">
  <diagram id="_1pIjhpikzi4_V56C4-2" name="Page-1">
    <mxGraphModel dx="2858" dy="1107" grid="1" gridSize="10" guides="1" tooltips="1" connect="1" arrows="1" fold="1" page="1" pageScale="1" pageWidth="827" pageHeight="1169" math="0" shadow="0">
      <root>
        <mxCell id="0" />
        <mxCell id="1" parent="0" />
        <mxCell id="yeq_wnequOcoh8USuDbu-28" value="&lt;font style=&quot;font-size: 16px&quot;&gt;&lt;br&gt;&lt;br&gt;&lt;br&gt;&lt;br&gt;&lt;br&gt;&lt;br&gt;&lt;br&gt;&lt;br&gt;&lt;br&gt;Pre-processing&lt;/font&gt;" style="rounded=0;whiteSpace=wrap;html=1;strokeColor=#000000;fillColor=#F5FCF4;" vertex="1" parent="1">
          <mxGeometry x="230" y="400" width="120" height="360" as="geometry" />
        </mxCell>
        <mxCell id="yeq_wnequOcoh8USuDbu-29" value="&lt;font style=&quot;font-size: 16px&quot;&gt;&lt;br&gt;&lt;br&gt;&lt;br&gt;&lt;br&gt;&lt;br&gt;&lt;br&gt;Zbieranie danych&lt;/font&gt;" style="rounded=0;whiteSpace=wrap;html=1;strokeColor=#000000;fillColor=#F5FCF4;" vertex="1" parent="1">
          <mxGeometry x="-400" y="400" width="520" height="360" as="geometry" />
        </mxCell>
        <mxCell id="yeq_wnequOcoh8USuDbu-8" value="&lt;font style=&quot;font-size: 16px&quot;&gt;Podsumowanie&lt;/font&gt;" style="whiteSpace=wrap;html=1;aspect=fixed;fillColor=#F5FCF4;" vertex="1" parent="1">
          <mxGeometry x="480" y="400" width="360" height="360" as="geometry" />
        </mxCell>
        <mxCell id="yeq_wnequOcoh8USuDbu-9" value="Smartfon" style="ellipse;whiteSpace=wrap;html=1;aspect=fixed;fillColor=#fff2cc;strokeColor=#d6b656;" vertex="1" parent="1">
          <mxGeometry x="920" y="400" width="80" height="80" as="geometry" />
        </mxCell>
        <mxCell id="yeq_wnequOcoh8USuDbu-53" style="edgeStyle=none;rounded=0;orthogonalLoop=1;jettySize=auto;html=1;exitX=0;exitY=1;exitDx=0;exitDy=0;entryX=0.5;entryY=0;entryDx=0;entryDy=0;" edge="1" parent="1" source="yeq_wnequOcoh8USuDbu-10" target="yeq_wnequOcoh8USuDbu-58">
          <mxGeometry relative="1" as="geometry">
            <mxPoint x="290" y="410" as="targetPoint" />
          </mxGeometry>
        </mxCell>
        <mxCell id="yeq_wnequOcoh8USuDbu-54" style="edgeStyle=none;rounded=0;orthogonalLoop=1;jettySize=auto;html=1;exitX=1;exitY=1;exitDx=0;exitDy=0;entryX=0.5;entryY=0;entryDx=0;entryDy=0;" edge="1" parent="1" source="yeq_wnequOcoh8USuDbu-10" target="yeq_wnequOcoh8USuDbu-57">
          <mxGeometry relative="1" as="geometry">
            <mxPoint x="535" y="425" as="targetPoint" />
          </mxGeometry>
        </mxCell>
        <mxCell id="yeq_wnequOcoh8USuDbu-10" value="Ratownik" style="ellipse;whiteSpace=wrap;html=1;aspect=fixed;fillColor=#d5e8d4;strokeColor=#82b366;" vertex="1" parent="1">
          <mxGeometry x="400" y="240" width="80" height="80" as="geometry" />
        </mxCell>
        <mxCell id="yeq_wnequOcoh8USuDbu-33" style="rounded=0;orthogonalLoop=1;jettySize=auto;html=1;exitX=0.5;exitY=1;exitDx=0;exitDy=0;entryX=0.5;entryY=0;entryDx=0;entryDy=0;" edge="1" parent="1" source="yeq_wnequOcoh8USuDbu-11" target="yeq_wnequOcoh8USuDbu-24">
          <mxGeometry relative="1" as="geometry" />
        </mxCell>
        <mxCell id="yeq_wnequOcoh8USuDbu-11" value="BTS" style="ellipse;whiteSpace=wrap;html=1;aspect=fixed;fillColor=#e1d5e7;strokeColor=#9673a6;" vertex="1" parent="1">
          <mxGeometry x="-240" y="240" width="80" height="80" as="geometry" />
        </mxCell>
        <mxCell id="yeq_wnequOcoh8USuDbu-40" style="edgeStyle=none;rounded=0;orthogonalLoop=1;jettySize=auto;html=1;exitX=0.5;exitY=1;exitDx=0;exitDy=0;entryX=0.5;entryY=0;entryDx=0;entryDy=0;" edge="1" parent="1" source="yeq_wnequOcoh8USuDbu-12" target="yeq_wnequOcoh8USuDbu-25">
          <mxGeometry relative="1" as="geometry" />
        </mxCell>
        <mxCell id="yeq_wnequOcoh8USuDbu-12" value="Dron BTS" style="ellipse;whiteSpace=wrap;html=1;aspect=fixed;fillColor=#e1d5e7;strokeColor=#9673a6;" vertex="1" parent="1">
          <mxGeometry x="-110" y="240" width="80" height="80" as="geometry" />
        </mxCell>
        <mxCell id="yeq_wnequOcoh8USuDbu-36" style="edgeStyle=none;rounded=0;orthogonalLoop=1;jettySize=auto;html=1;exitX=1;exitY=0.5;exitDx=0;exitDy=0;entryX=0;entryY=0.5;entryDx=0;entryDy=0;" edge="1" parent="1" source="yeq_wnequOcoh8USuDbu-13" target="yeq_wnequOcoh8USuDbu-22">
          <mxGeometry relative="1" as="geometry" />
        </mxCell>
        <mxCell id="yeq_wnequOcoh8USuDbu-13" value="Dron z kamerą" style="ellipse;whiteSpace=wrap;html=1;aspect=fixed;fillColor=#e1d5e7;strokeColor=#9673a6;" vertex="1" parent="1">
          <mxGeometry x="-560" y="680" width="80" height="80" as="geometry" />
        </mxCell>
        <mxCell id="yeq_wnequOcoh8USuDbu-35" style="edgeStyle=none;rounded=0;orthogonalLoop=1;jettySize=auto;html=1;exitX=1;exitY=0.5;exitDx=0;exitDy=0;entryX=0;entryY=0.5;entryDx=0;entryDy=0;" edge="1" parent="1" source="yeq_wnequOcoh8USuDbu-14" target="yeq_wnequOcoh8USuDbu-21">
          <mxGeometry relative="1" as="geometry" />
        </mxCell>
        <mxCell id="yeq_wnequOcoh8USuDbu-14" value="Zwierzę" style="ellipse;whiteSpace=wrap;html=1;aspect=fixed;fillColor=#e1d5e7;strokeColor=#9673a6;" vertex="1" parent="1">
          <mxGeometry x="-560" y="540" width="80" height="80" as="geometry" />
        </mxCell>
        <mxCell id="yeq_wnequOcoh8USuDbu-34" style="edgeStyle=none;rounded=0;orthogonalLoop=1;jettySize=auto;html=1;entryX=0;entryY=0.5;entryDx=0;entryDy=0;" edge="1" parent="1" source="yeq_wnequOcoh8USuDbu-15" target="yeq_wnequOcoh8USuDbu-17">
          <mxGeometry relative="1" as="geometry" />
        </mxCell>
        <mxCell id="yeq_wnequOcoh8USuDbu-15" value="Czujnik /&amp;nbsp;&lt;br&gt;stacja pogodowa" style="ellipse;whiteSpace=wrap;html=1;aspect=fixed;fillColor=#e1d5e7;strokeColor=#9673a6;" vertex="1" parent="1">
          <mxGeometry x="-560" y="400" width="80" height="80" as="geometry" />
        </mxCell>
        <mxCell id="yeq_wnequOcoh8USuDbu-16" value="Komputer ratownika" style="ellipse;whiteSpace=wrap;html=1;aspect=fixed;fillColor=#e1d5e7;strokeColor=#9673a6;" vertex="1" parent="1">
          <mxGeometry x="920" y="680" width="80" height="80" as="geometry" />
        </mxCell>
        <mxCell id="yeq_wnequOcoh8USuDbu-37" style="edgeStyle=none;rounded=0;orthogonalLoop=1;jettySize=auto;html=1;exitX=1;exitY=0.5;exitDx=0;exitDy=0;entryX=0;entryY=0.25;entryDx=0;entryDy=0;" edge="1" parent="1" source="yeq_wnequOcoh8USuDbu-17" target="yeq_wnequOcoh8USuDbu-23">
          <mxGeometry relative="1" as="geometry" />
        </mxCell>
        <mxCell id="yeq_wnequOcoh8USuDbu-17" value="Czujnik / sp" style="rounded=0;whiteSpace=wrap;html=1;strokeColor=#6c8ebf;fillColor=#dae8fc;" vertex="1" parent="1">
          <mxGeometry x="-380" y="425" width="70" height="30" as="geometry" />
        </mxCell>
        <mxCell id="yeq_wnequOcoh8USuDbu-38" style="edgeStyle=none;rounded=0;orthogonalLoop=1;jettySize=auto;html=1;exitX=1;exitY=0.5;exitDx=0;exitDy=0;" edge="1" parent="1" source="yeq_wnequOcoh8USuDbu-21">
          <mxGeometry relative="1" as="geometry">
            <mxPoint x="-190" y="580" as="targetPoint" />
          </mxGeometry>
        </mxCell>
        <mxCell id="yeq_wnequOcoh8USuDbu-21" value="Zwierzę" style="rounded=0;whiteSpace=wrap;html=1;strokeColor=#6c8ebf;fillColor=#dae8fc;" vertex="1" parent="1">
          <mxGeometry x="-380" y="565" width="70" height="30" as="geometry" />
        </mxCell>
        <mxCell id="yeq_wnequOcoh8USuDbu-39" style="edgeStyle=none;rounded=0;orthogonalLoop=1;jettySize=auto;html=1;exitX=1;exitY=0.5;exitDx=0;exitDy=0;entryX=0;entryY=0.75;entryDx=0;entryDy=0;" edge="1" parent="1" source="yeq_wnequOcoh8USuDbu-22" target="yeq_wnequOcoh8USuDbu-23">
          <mxGeometry relative="1" as="geometry" />
        </mxCell>
        <mxCell id="yeq_wnequOcoh8USuDbu-22" value="Dron z k" style="rounded=0;whiteSpace=wrap;html=1;strokeColor=#6c8ebf;fillColor=#dae8fc;" vertex="1" parent="1">
          <mxGeometry x="-380" y="705" width="70" height="30" as="geometry" />
        </mxCell>
        <mxCell id="yeq_wnequOcoh8USuDbu-43" style="edgeStyle=none;rounded=0;orthogonalLoop=1;jettySize=auto;html=1;exitX=1;exitY=0.5;exitDx=0;exitDy=0;entryX=0;entryY=0.5;entryDx=0;entryDy=0;" edge="1" parent="1" source="yeq_wnequOcoh8USuDbu-23" target="yeq_wnequOcoh8USuDbu-27">
          <mxGeometry relative="1" as="geometry" />
        </mxCell>
        <mxCell id="yeq_wnequOcoh8USuDbu-23" value="&lt;font style=&quot;font-size: 12px&quot;&gt;Przekazywanie&lt;br&gt;powiadomień&lt;/font&gt;" style="rounded=0;whiteSpace=wrap;html=1;strokeColor=#6c8ebf;fillColor=#dae8fc;" vertex="1" parent="1">
          <mxGeometry x="-190" y="565" width="100" height="30" as="geometry" />
        </mxCell>
        <mxCell id="yeq_wnequOcoh8USuDbu-42" style="edgeStyle=none;rounded=0;orthogonalLoop=1;jettySize=auto;html=1;exitX=0.5;exitY=1;exitDx=0;exitDy=0;entryX=0.25;entryY=0;entryDx=0;entryDy=0;" edge="1" parent="1" source="yeq_wnequOcoh8USuDbu-24" target="yeq_wnequOcoh8USuDbu-26">
          <mxGeometry relative="1" as="geometry" />
        </mxCell>
        <mxCell id="yeq_wnequOcoh8USuDbu-24" value="BTS" style="rounded=0;whiteSpace=wrap;html=1;strokeColor=#6c8ebf;fillColor=#dae8fc;" vertex="1" parent="1">
          <mxGeometry x="-190" y="425" width="100" height="30" as="geometry" />
        </mxCell>
        <mxCell id="yeq_wnequOcoh8USuDbu-41" style="edgeStyle=none;rounded=0;orthogonalLoop=1;jettySize=auto;html=1;exitX=0.5;exitY=1;exitDx=0;exitDy=0;entryX=0.5;entryY=0;entryDx=0;entryDy=0;" edge="1" parent="1" source="yeq_wnequOcoh8USuDbu-25" target="yeq_wnequOcoh8USuDbu-26">
          <mxGeometry relative="1" as="geometry" />
        </mxCell>
        <mxCell id="yeq_wnequOcoh8USuDbu-25" value="Dron BTS" style="rounded=0;whiteSpace=wrap;html=1;strokeColor=#6c8ebf;fillColor=#dae8fc;" vertex="1" parent="1">
          <mxGeometry y="425" width="100" height="30" as="geometry" />
        </mxCell>
        <mxCell id="yeq_wnequOcoh8USuDbu-59" style="edgeStyle=none;rounded=0;orthogonalLoop=1;jettySize=auto;html=1;exitX=1;exitY=0.5;exitDx=0;exitDy=0;entryX=0;entryY=0.5;entryDx=0;entryDy=0;" edge="1" parent="1" source="yeq_wnequOcoh8USuDbu-26" target="yeq_wnequOcoh8USuDbu-46">
          <mxGeometry relative="1" as="geometry" />
        </mxCell>
        <mxCell id="yeq_wnequOcoh8USuDbu-26" value="Zbieranie CDR" style="rounded=0;whiteSpace=wrap;html=1;strokeColor=#6c8ebf;fillColor=#dae8fc;" vertex="1" parent="1">
          <mxGeometry y="535" width="100" height="30" as="geometry" />
        </mxCell>
        <mxCell id="yeq_wnequOcoh8USuDbu-60" style="edgeStyle=none;rounded=0;orthogonalLoop=1;jettySize=auto;html=1;exitX=1;exitY=0.5;exitDx=0;exitDy=0;entryX=0;entryY=0.5;entryDx=0;entryDy=0;" edge="1" parent="1" source="yeq_wnequOcoh8USuDbu-27" target="yeq_wnequOcoh8USuDbu-47">
          <mxGeometry relative="1" as="geometry" />
        </mxCell>
        <mxCell id="yeq_wnequOcoh8USuDbu-61" style="edgeStyle=none;rounded=0;orthogonalLoop=1;jettySize=auto;html=1;exitX=1;exitY=0.5;exitDx=0;exitDy=0;entryX=0;entryY=0.5;entryDx=0;entryDy=0;" edge="1" parent="1" source="yeq_wnequOcoh8USuDbu-27" target="yeq_wnequOcoh8USuDbu-45">
          <mxGeometry relative="1" as="geometry" />
        </mxCell>
        <mxCell id="yeq_wnequOcoh8USuDbu-27" value="&lt;font style=&quot;font-size: 12px&quot;&gt;Zbieranie powiadomień&lt;/font&gt;" style="rounded=0;whiteSpace=wrap;html=1;strokeColor=#6c8ebf;fillColor=#dae8fc;" vertex="1" parent="1">
          <mxGeometry y="595" width="100" height="30" as="geometry" />
        </mxCell>
        <mxCell id="yeq_wnequOcoh8USuDbu-62" style="edgeStyle=none;rounded=0;orthogonalLoop=1;jettySize=auto;html=1;exitX=1;exitY=0.5;exitDx=0;exitDy=0;entryX=0;entryY=1;entryDx=0;entryDy=0;" edge="1" parent="1" source="yeq_wnequOcoh8USuDbu-45" target="yeq_wnequOcoh8USuDbu-16">
          <mxGeometry relative="1" as="geometry">
            <Array as="points">
              <mxPoint x="410" y="720" />
              <mxPoint x="410" y="770" />
              <mxPoint x="670" y="770" />
              <mxPoint x="920" y="770" />
            </Array>
          </mxGeometry>
        </mxCell>
        <mxCell id="yeq_wnequOcoh8USuDbu-45" value="Nadawanie wideo" style="rounded=0;whiteSpace=wrap;html=1;strokeColor=#6c8ebf;fillColor=#dae8fc;" vertex="1" parent="1">
          <mxGeometry x="255" y="705" width="70" height="30" as="geometry" />
        </mxCell>
        <mxCell id="yeq_wnequOcoh8USuDbu-64" style="edgeStyle=none;rounded=0;orthogonalLoop=1;jettySize=auto;html=1;exitX=1;exitY=0.5;exitDx=0;exitDy=0;" edge="1" parent="1" source="yeq_wnequOcoh8USuDbu-46">
          <mxGeometry relative="1" as="geometry">
            <mxPoint x="500" y="580" as="targetPoint" />
          </mxGeometry>
        </mxCell>
        <mxCell id="yeq_wnequOcoh8USuDbu-46" value="Lokalizacja obiektów" style="rounded=0;whiteSpace=wrap;html=1;strokeColor=#6c8ebf;fillColor=#dae8fc;" vertex="1" parent="1">
          <mxGeometry x="255" y="535" width="70" height="30" as="geometry" />
        </mxCell>
        <mxCell id="yeq_wnequOcoh8USuDbu-65" style="edgeStyle=none;rounded=0;orthogonalLoop=1;jettySize=auto;html=1;exitX=1;exitY=0.5;exitDx=0;exitDy=0;entryX=0;entryY=0.75;entryDx=0;entryDy=0;" edge="1" parent="1" source="yeq_wnequOcoh8USuDbu-47" target="yeq_wnequOcoh8USuDbu-49">
          <mxGeometry relative="1" as="geometry" />
        </mxCell>
        <mxCell id="yeq_wnequOcoh8USuDbu-47" value="Badanie otoczenia" style="rounded=0;whiteSpace=wrap;html=1;strokeColor=#6c8ebf;fillColor=#dae8fc;" vertex="1" parent="1">
          <mxGeometry x="255" y="595" width="70" height="30" as="geometry" />
        </mxCell>
        <mxCell id="yeq_wnequOcoh8USuDbu-67" style="edgeStyle=none;rounded=0;orthogonalLoop=1;jettySize=auto;html=1;exitX=1;exitY=0.25;exitDx=0;exitDy=0;entryX=0;entryY=0.5;entryDx=0;entryDy=0;" edge="1" parent="1" source="yeq_wnequOcoh8USuDbu-49" target="yeq_wnequOcoh8USuDbu-51">
          <mxGeometry relative="1" as="geometry" />
        </mxCell>
        <mxCell id="yeq_wnequOcoh8USuDbu-68" style="edgeStyle=none;rounded=0;orthogonalLoop=1;jettySize=auto;html=1;exitX=1;exitY=0.75;exitDx=0;exitDy=0;entryX=0;entryY=0.5;entryDx=0;entryDy=0;" edge="1" parent="1" source="yeq_wnequOcoh8USuDbu-49" target="yeq_wnequOcoh8USuDbu-52">
          <mxGeometry relative="1" as="geometry" />
        </mxCell>
        <mxCell id="yeq_wnequOcoh8USuDbu-49" value="Reasoning manager" style="rounded=0;whiteSpace=wrap;html=1;strokeColor=#6c8ebf;fillColor=#dae8fc;" vertex="1" parent="1">
          <mxGeometry x="505" y="565" width="70" height="30" as="geometry" />
        </mxCell>
        <mxCell id="yeq_wnequOcoh8USuDbu-69" style="edgeStyle=none;rounded=0;orthogonalLoop=1;jettySize=auto;html=1;exitX=0.5;exitY=0;exitDx=0;exitDy=0;entryX=0.5;entryY=1;entryDx=0;entryDy=0;" edge="1" parent="1" source="yeq_wnequOcoh8USuDbu-50" target="yeq_wnequOcoh8USuDbu-49">
          <mxGeometry relative="1" as="geometry" />
        </mxCell>
        <mxCell id="yeq_wnequOcoh8USuDbu-50" value="Solver SAT" style="rounded=0;whiteSpace=wrap;html=1;strokeColor=#6c8ebf;fillColor=#dae8fc;" vertex="1" parent="1">
          <mxGeometry x="505" y="705" width="70" height="30" as="geometry" />
        </mxCell>
        <mxCell id="yeq_wnequOcoh8USuDbu-56" style="edgeStyle=none;rounded=0;orthogonalLoop=1;jettySize=auto;html=1;exitX=1;exitY=0.5;exitDx=0;exitDy=0;entryX=0;entryY=0.5;entryDx=0;entryDy=0;" edge="1" parent="1" source="yeq_wnequOcoh8USuDbu-51" target="yeq_wnequOcoh8USuDbu-9">
          <mxGeometry relative="1" as="geometry" />
        </mxCell>
        <mxCell id="yeq_wnequOcoh8USuDbu-51" value="Aplikacja" style="rounded=0;whiteSpace=wrap;html=1;strokeColor=#6c8ebf;fillColor=#dae8fc;" vertex="1" parent="1">
          <mxGeometry x="740" y="535" width="70" height="30" as="geometry" />
        </mxCell>
        <mxCell id="yeq_wnequOcoh8USuDbu-55" style="edgeStyle=none;rounded=0;orthogonalLoop=1;jettySize=auto;html=1;exitX=1;exitY=0.5;exitDx=0;exitDy=0;entryX=0;entryY=0.5;entryDx=0;entryDy=0;" edge="1" parent="1" source="yeq_wnequOcoh8USuDbu-52" target="yeq_wnequOcoh8USuDbu-16">
          <mxGeometry relative="1" as="geometry" />
        </mxCell>
        <mxCell id="yeq_wnequOcoh8USuDbu-52" value="Aplikacja" style="rounded=0;whiteSpace=wrap;html=1;strokeColor=#6c8ebf;fillColor=#dae8fc;" vertex="1" parent="1">
          <mxGeometry x="740" y="595" width="70" height="30" as="geometry" />
        </mxCell>
        <mxCell id="yeq_wnequOcoh8USuDbu-66" style="edgeStyle=none;rounded=0;orthogonalLoop=1;jettySize=auto;html=1;exitX=0.5;exitY=1;exitDx=0;exitDy=0;entryX=0.5;entryY=0;entryDx=0;entryDy=0;" edge="1" parent="1" source="yeq_wnequOcoh8USuDbu-57" target="yeq_wnequOcoh8USuDbu-49">
          <mxGeometry relative="1" as="geometry" />
        </mxCell>
        <mxCell id="yeq_wnequOcoh8USuDbu-57" value="Ogłaszanie warunków nadzwyczajnych" style="rounded=0;whiteSpace=wrap;html=1;strokeColor=#6c8ebf;fillColor=#dae8fc;" vertex="1" parent="1">
          <mxGeometry x="490" y="410" width="100" height="50" as="geometry" />
        </mxCell>
        <mxCell id="yeq_wnequOcoh8USuDbu-63" style="edgeStyle=none;rounded=0;orthogonalLoop=1;jettySize=auto;html=1;exitX=1;exitY=0.5;exitDx=0;exitDy=0;entryX=0;entryY=0.25;entryDx=0;entryDy=0;" edge="1" parent="1" source="yeq_wnequOcoh8USuDbu-58" target="yeq_wnequOcoh8USuDbu-49">
          <mxGeometry relative="1" as="geometry" />
        </mxCell>
        <mxCell id="yeq_wnequOcoh8USuDbu-58" value="Ogłaszanie lawiny" style="rounded=0;whiteSpace=wrap;html=1;strokeColor=#6c8ebf;fillColor=#dae8fc;" vertex="1" parent="1">
          <mxGeometry x="255" y="425" width="70" height="30" as="geometry" />
        </mxCell>
      </root>
    </mxGraphModel>
  </diagram>
</mxfile>
